<?xml version="1.0" encoding="UTF-8"?>
<svg version="1.1" xmlns="http://www.w3.org/2000/svg" width="225" height="225">
<path d="M0 0 C22.25995427 18.52097758 36.97971979 44.48263775 39.83447266 73.55322266 C42.18583522 108.31038431 34.97872546 139.41354307 11.75415039 166.02172852 C-5.57926738 185.21762357 -31.27070902 199.5430565 -57.42407227 201.21948242 C-61.30493813 201.3404504 -65.18022082 201.3865544 -69.0625 201.375 C-69.74908691 201.37445618 -70.43567383 201.37391235 -71.14306641 201.37335205 C-81.90218517 201.33417442 -91.7796217 200.53486768 -102 197 C-102.63212402 196.78569336 -103.26424805 196.57138672 -103.91552734 196.35058594 C-117.1161765 191.7853476 -129.36240087 185.07897655 -140 176 C-140.78632813 175.35804688 -141.57265625 174.71609375 -142.3828125 174.0546875 C-159.48323653 159.52736802 -169.97335298 140.36026792 -176 119 C-176.28061279 118.03126953 -176.28061279 118.03126953 -176.56689453 117.04296875 C-184.19158719 89.04133758 -179.15275307 55.95246028 -165.08251953 30.859375 C-149.21350351 3.60217473 -124.38786846 -13.93372179 -94.18359375 -22.2734375 C-61.05278577 -29.83457895 -26.2500378 -21.14172079 0 0 Z M-69 37 C-69.9932752 40.26525345 -70.44877408 43.58321081 -70.9296875 46.95703125 C-71.08555328 47.95644241 -71.24141907 48.95585358 -71.40200806 49.98554993 C-71.90871137 53.25901092 -72.39210016 56.53545037 -72.875 59.8125 C-73.21926596 62.07102032 -73.56498028 64.32932031 -73.91210938 66.58740234 C-74.61468027 71.17213721 -75.30827234 75.75809866 -75.99511719 80.34521484 C-76.91516367 86.47107857 -77.8758828 92.58981639 -78.8515625 98.70703125 C-79.26985085 101.34710013 -79.68739884 103.98728468 -80.10455322 106.62753296 C-80.36601503 108.27881018 -80.62880992 109.92987693 -80.89300537 111.58071899 C-81.25763058 113.8680173 -81.61423725 116.15642808 -81.96875 118.4453125 C-82.26942383 120.35594482 -82.26942383 120.35594482 -82.57617188 122.30517578 C-83.64321794 129.39191044 -83.64321794 129.39191044 -81.75 135.9375 C-79.67983705 137.19438465 -78.43837217 137.85656634 -76 138 C-73.24952182 137.11734188 -73.24952182 137.11734188 -71 135 C-69.25942038 129.91849303 -68.37689529 124.79755135 -67.57958984 119.49780273 C-67.45250137 118.67736481 -67.3254129 117.85692688 -67.19447327 117.0116272 C-66.77874928 114.31962594 -66.36961827 111.62667255 -65.9609375 108.93359375 C-65.67259977 107.05221024 -65.3839908 105.17086828 -65.09512329 103.28956604 C-64.49210602 99.35535328 -63.89235558 95.42066011 -63.29492188 91.4855957 C-62.52994698 86.44875582 -61.75686719 81.41319975 -60.98134422 76.37797451 C-60.3844387 72.49653714 -59.79182023 68.61445454 -59.20048904 64.73216438 C-58.91713296 62.8752644 -58.63245469 61.01856567 -58.34641647 59.16207695 C-57.94713266 56.56629245 -57.55363213 53.96969415 -57.16162109 51.37280273 C-57.04320358 50.61055893 -56.92478607 49.84831512 -56.80278015 49.06297302 C-55.33061202 41.48961994 -55.33061202 41.48961994 -57.6875 34.625 C-59.88575314 32.84807743 -59.88575314 32.84807743 -62.5 32.5 C-65.97108942 33.19421788 -66.84782065 34.16118823 -69 37 Z M-45.875 51.5 C-48.36387076 53.87219508 -48.36387076 53.87219508 -47.95336914 57.29907227 C-46.84817537 61.58937505 -45.00492931 63.77590831 -41.87109375 66.71484375 C-41.36199966 67.21544815 -40.85290558 67.71605255 -40.3283844 68.23182678 C-38.71170934 69.81512616 -37.0753934 71.37619094 -35.4375 72.9375 C-34.33261455 74.01226546 -33.22908308 75.0884247 -32.12695312 76.16601562 C-29.4333667 78.79372903 -26.72197001 81.40171266 -24 84 C-25.54384056 87.74243255 -27.82890538 89.97822301 -30.75390625 92.73828125 C-31.69041016 93.64126953 -32.62691406 94.54425781 -33.59179688 95.47460938 C-35.07560264 96.89657967 -36.56341558 98.31335894 -38.06225586 99.71948242 C-39.51454929 101.08664223 -40.94699364 102.47478983 -42.37890625 103.86328125 C-43.2407251 104.68094971 -44.10254395 105.49861816 -44.99047852 106.34106445 C-47.4746857 109.62808917 -47.90391668 111.91092157 -48 116 C-46.00979883 118.65884601 -46.00979883 118.65884601 -43 120 C-38.2908184 120.02221556 -35.89833305 117.40733515 -32.70707703 114.31416321 C-32.0547963 113.66005966 -31.40251556 113.00595612 -30.73046875 112.33203125 C-30.04946609 111.65959885 -29.36846344 110.98716644 -28.66682434 110.2943573 C-27.23218553 108.87119008 -25.80274004 107.44277114 -24.37817383 106.00952148 C-22.19512127 103.82014335 -19.98677802 101.65875613 -17.77539062 99.49804688 C-16.3837966 98.11099848 -14.993768 96.72237739 -13.60546875 95.33203125 C-12.94306686 94.68804886 -12.28066498 94.04406647 -11.59819031 93.38056946 C-8.8966647 90.62337106 -7.20981901 88.76234655 -6.17431641 85 C-7.4311733 80.43339518 -10.26391577 77.91660274 -13.60546875 74.66796875 C-14.61979729 73.6521447 -14.61979729 73.6521447 -15.65461731 72.61579895 C-17.08589925 71.18919229 -18.52455829 69.76995406 -19.9699707 68.35766602 C-22.17965307 66.19517933 -24.36147872 64.00727539 -26.54101562 61.81445312 C-27.93592275 60.43069989 -29.33235779 59.04848483 -30.73046875 57.66796875 C-31.38274948 57.0138652 -32.03503021 56.35976166 -32.70707703 55.68583679 C-38.47546446 50.02711322 -38.47546446 50.02711322 -45.875 51.5 Z M-106.22973633 55.9074707 C-107.43639857 57.07417232 -108.63686366 58.2473073 -109.83203125 59.42578125 C-110.46864182 60.05099167 -111.10525238 60.67620209 -111.76115417 61.32035828 C-113.09933199 62.63970893 -114.43467505 63.96194026 -115.76733398 65.28686523 C-117.80947695 67.30950582 -119.87194856 69.30983169 -121.93554688 71.31054688 C-123.23568727 72.59763411 -124.5345601 73.88600329 -125.83203125 75.17578125 C-126.45068558 75.76974197 -127.0693399 76.3637027 -127.70674133 76.97566223 C-130.31851165 79.6152047 -131.82194855 81.3379971 -132.79833984 84.96826172 C-131.58594524 89.57239512 -128.75112014 92.06877946 -125.39453125 95.33203125 C-124.71831223 96.00924728 -124.0420932 96.68646332 -123.34538269 97.38420105 C-121.91410075 98.81080771 -120.47544171 100.23004594 -119.0300293 101.64233398 C-116.82034693 103.80482067 -114.63852128 105.99272461 -112.45898438 108.18554688 C-111.06407725 109.56930011 -109.66764221 110.95151517 -108.26953125 112.33203125 C-107.61725052 112.9861348 -106.96496979 113.64023834 -106.29292297 114.31416321 C-101.90220174 118.66793892 -101.90220174 118.66793892 -96 120 C-93.66666667 119.66666667 -93.66666667 119.66666667 -92 118 C-90.55589179 114.82709813 -90.55589179 114.82709813 -91 111 C-92.22615044 109.10757588 -92.22615044 109.10757588 -93.953125 107.3203125 C-94.59096924 106.62437988 -95.22881348 105.92844727 -95.88598633 105.21142578 C-99.51378041 101.41646576 -103.2045334 97.69138256 -106.9375 94 C-107.71673828 93.22527344 -108.49597656 92.45054688 -109.29882812 91.65234375 C-111.1969242 89.76589243 -113.09733149 87.88183755 -115 86 C-113.45370693 82.25645617 -111.16206326 79.99960567 -108.24609375 77.2265625 C-107.30958984 76.3190625 -106.37308594 75.4115625 -105.40820312 74.4765625 C-103.92312292 73.04723113 -102.43451183 71.62217089 -100.93774414 70.20507812 C-99.48780272 68.82795609 -98.05422298 67.43367206 -96.62109375 66.0390625 C-95.7592749 65.21615723 -94.89745605 64.39325195 -94.00952148 63.54541016 C-91.68340378 60.59897556 -91.18008366 58.72044489 -91 55 C-92.31497559 52.43925806 -93.30834169 51.34582915 -95.875 50.0625 C-100.17298354 49.93608872 -103.23898321 53.11576864 -106.22973633 55.9074707 Z " fill="#3DBA68" transform="translate(182,24)"/>
<path d="M0 0 C1.29701542 0.94758935 2.59064326 1.8998167 3.8828125 2.85400391 C4.96393311 3.64866562 4.96393311 3.64866562 6.06689453 4.4593811 C8.26089983 6.20792823 9.64620706 7.92125029 11 10.375 C11.5878125 11.40753906 11.5878125 11.40753906 12.1875 12.4609375 C12.5896875 13.22277344 12.5896875 13.22277344 13 14 C11.68 14.99 10.36 15.98 9 17 C9.33503574 22.86791171 10.94990746 25.79574609 15.12890625 29.71484375 C15.89254738 30.46575035 15.89254738 30.46575035 16.6716156 31.23182678 C18.28829066 32.81512616 19.9246066 34.37619094 21.5625 35.9375 C22.66738545 37.01226546 23.77091692 38.0884247 24.87304688 39.16601562 C27.5666333 41.79372903 30.27802999 44.40171266 33 47 C31.45728496 50.72804994 29.18692946 52.97608202 26.28125 55.73828125 C25.34925781 56.64126953 24.41726562 57.54425781 23.45703125 58.47460938 C21.98086899 59.89512753 20.50119146 61.31137251 19.01318359 62.71948242 C17.57052845 64.08907051 16.14444086 65.47604263 14.71875 66.86328125 C13.86216797 67.68094971 13.00558594 68.49861816 12.12304688 69.34106445 C9.53296932 72.58491619 8.89091884 74.98315296 8 79 C8.99 79.33 9.98 79.66 11 80 C11 80.66 11 81.32 11 82 C17.74440719 81.78562613 20.60278231 79.27308533 25.2109375 74.55078125 C25.86454254 73.90054489 26.51814758 73.25030853 27.19155884 72.58036804 C28.5651914 71.20643736 29.93140008 69.82504891 31.29052734 68.43676758 C33.37011139 66.31748194 35.47747831 64.22913505 37.58984375 62.14257812 C38.92363562 60.80122757 40.25572684 59.45818335 41.5859375 58.11328125 C42.21503021 57.49117264 42.84412292 56.86906403 43.49227905 56.22810364 C46.98256263 52.62314774 48.79659867 50.24384648 49 45 C54.13247278 49.29052681 58.91442671 53.79262745 63.61328125 58.55078125 C64.65671944 59.59989937 64.65671944 59.59989937 65.72123718 60.67021179 C67.92078635 62.88187926 70.11703643 65.09677729 72.3125 67.3125 C75.22241047 70.24894173 78.1355759 73.18209716 81.05078125 76.11328125 C81.71846024 76.78925858 82.38613922 77.4652359 83.0740509 78.16169739 C83.69197006 78.78291977 84.30988922 79.40414215 84.9465332 80.04418945 C85.76091606 80.86642754 85.76091606 80.86642754 86.5917511 81.70527649 C87.98917979 83.10964799 87.98917979 83.10964799 90 84 C90.13277344 83.24074219 90.26554688 82.48148437 90.40234375 81.69921875 C90.57894531 80.70535156 90.75554687 79.71148437 90.9375 78.6875 C91.11152344 77.70136719 91.28554687 76.71523437 91.46484375 75.69921875 C92 73 92 73 93 70 C93.06131416 67.31480572 93.0677559 64.65642549 93.02734375 61.97265625 C93.014698 60.36002818 93.002337 58.74739786 92.99023438 57.13476562 C92.96541158 54.59571297 92.93742478 52.05677749 92.90405273 49.51782227 C92.87382707 47.06525936 92.85606925 44.61284614 92.83984375 42.16015625 C92.81965431 41.02405663 92.81965431 41.02405663 92.79905701 39.86500549 C92.78106596 36.08036972 92.86878753 33.20759303 95 30 C99.32017997 63.07529784 93.85498065 95.60388477 73.265625 122.41015625 C55.60629155 144.5933313 30.42933792 160.21152228 2 164 C-3.02112854 164.32185344 -8.03267026 164.38996973 -13.0625 164.375 C-13.74908691 164.37445618 -14.43567383 164.37391235 -15.14306641 164.37335205 C-25.90218517 164.33417442 -35.7796217 163.53486768 -46 160 C-46.63212402 159.78569336 -47.26424805 159.57138672 -47.91552734 159.35058594 C-61.1161765 154.7853476 -73.36240087 148.07897655 -84 139 C-84.78632812 138.35804688 -85.57265625 137.71609375 -86.3828125 137.0546875 C-103.47537701 122.53404492 -113.98977648 103.35847889 -120 82 C-120.19722656 81.30197266 -120.39445312 80.60394531 -120.59765625 79.88476562 C-121.63348158 76.01500974 -122.23620086 72.50323113 -122.125 68.5 C-122.10695313 67.6440625 -122.08890625 66.788125 -122.0703125 65.90625 C-122.04710938 65.2771875 -122.02390625 64.648125 -122 64 C-119.86554773 67.67390235 -119.06190359 71.59068475 -118.125 75.6875 C-116.64054194 81.82769596 -114.92325581 87.37480742 -112 93 C-111.45730469 94.11632812 -110.91460937 95.23265625 -110.35546875 96.3828125 C-100.64024535 115.9101057 -85.6128128 133.04063405 -66 143 C-64.89978516 143.61294922 -64.89978516 143.61294922 -63.77734375 144.23828125 C-39.23848168 157.47042223 -10.64100891 158.66938871 16.02734375 152.59423828 C18.16731996 151.94959693 20.03189581 151.05174695 22 150 C21.35216553 149.35289062 20.70433105 148.70578125 20.03686523 148.0390625 C16.95112974 144.95339458 13.87270423 141.86046504 10.79371643 138.76806641 C7.43664072 135.39760185 4.07691476 132.02978444 0.71704102 128.66210938 C-1.05176059 126.88826474 -2.81966559 125.11352561 -4.58666992 123.33789062 C-7.14785278 120.76454686 -9.71227927 118.19447393 -12.27734375 115.625 C-13.06189438 114.83528809 -13.84644501 114.04557617 -14.6547699 113.23193359 C-18.62394314 109.26235751 -22.64265901 105.5370821 -27 102 C-28.18166126 100.71966139 -29.33271365 99.40973323 -30.4375 98.0625 C-33.27150744 94.71609389 -36.27203879 91.93540684 -39.71484375 89.2265625 C-40.13894531 88.82179688 -40.56304687 88.41703125 -41 88 C-41 87.34 -41 86.68 -41 86 C-41.66 86 -42.32 86 -43 86 C-43 85.34 -43 84.68 -43 84 C-43.66 84 -44.32 84 -45 84 C-45 83.34 -45 82.68 -45 82 C-40.545 81.505 -40.545 81.505 -36 81 C-35.48265443 77.4524875 -35.17527223 75.19425696 -37.25976562 72.17578125 C-37.82373047 71.56089844 -38.38769531 70.94601563 -38.96875 70.3125 C-39.60433838 69.61769531 -40.23992676 68.92289062 -40.89477539 68.20703125 C-44.5163721 64.4102976 -48.20669045 60.68924954 -51.9375 57 C-52.71673828 56.22527344 -53.49597656 55.45054688 -54.29882812 54.65234375 C-56.1969242 52.76589243 -58.09733149 50.88183755 -60 49 C-58.45728496 45.27195006 -56.18692946 43.02391798 -53.28125 40.26171875 C-52.34925781 39.35873047 -51.41726562 38.45574219 -50.45703125 37.52539062 C-48.98086899 36.10487247 -47.50119146 34.68862749 -46.01318359 33.28051758 C-44.57052845 31.91092949 -43.14444086 30.52395737 -41.71875 29.13671875 C-40.86216797 28.31905029 -40.00558594 27.50138184 -39.12304688 26.65893555 C-36.53296932 23.41508381 -35.89091884 21.01684704 -35 17 C-34.505 18.485 -34.505 18.485 -34 20 C-33.2575 20.28875 -32.515 20.5775 -31.75 20.875 C-28.3073824 22.28334357 -26.43199767 24.22057409 -24 27 C-24 27.66 -24 28.32 -24 29 C-22.515 29.495 -22.515 29.495 -21 30 C-19.29933167 31.24858093 -19.29933167 31.24858093 -18 33 C-17.86851501 35.32527161 -17.86851501 35.32527161 -18.21069336 38.02270508 C-18.32967987 39.00421539 -18.44866638 39.98572571 -18.57125854 40.99697876 C-18.71274323 41.98797577 -18.85422791 42.97897278 -19 44 C-19.12303497 44.87892914 -19.24606995 45.75785828 -19.37283325 46.66342163 C-19.76690701 49.32567089 -20.19349417 51.9809318 -20.62890625 54.63671875 C-20.94479221 56.6152135 -21.26054346 58.59372977 -21.57617188 60.57226562 C-22.0699672 63.64009516 -22.56576341 66.7075807 -23.06420898 69.7746582 C-23.54946746 72.76951217 -24.02708604 75.76551144 -24.50390625 78.76171875 C-24.65388565 79.67024094 -24.80386505 80.57876312 -24.95838928 81.51481628 C-25.78576429 86.74084071 -26.34883322 91.70757485 -26 97 C-23.94572012 99.3160651 -23.94572012 99.3160651 -21 100 C-18.21599293 99.81992412 -18.21599293 99.81992412 -16 98 C-14.17079298 92.72187092 -13.31350169 87.36288304 -12.48779297 81.85180664 C-12.35095093 80.96320953 -12.21410889 80.07461243 -12.07312012 79.15908813 C-11.6251943 76.24341501 -11.18365092 73.32681421 -10.7421875 70.41015625 C-10.43155687 68.37985804 -10.12052606 66.34962102 -9.80911255 64.31944275 C-8.99301491 58.9919674 -8.18233809 53.66368099 -7.37280273 48.33520508 C-6.54478813 42.89158773 -5.71162825 37.44875824 -4.87890625 32.00585938 C-3.24757894 21.33800266 -1.62197963 10.66928168 0 0 Z " fill="#339D58" transform="translate(126,61)"/>
<path d="M0 0 C4.97649586 2.62648392 8.19579871 5.58739614 10 11 C8.35 11.33 6.7 11.66 5 12 C5 11.34 5 10.68 5 10 C3.02 10.33 1.04 10.66 -1 11 C-2.26264601 6.70700357 -1.62950412 4.12168689 0 0 Z " fill="#32A058" transform="translate(128,63)"/>
<path d="M0 0 C0.33 0.66 0.66 1.32 1 2 C0.67 2.66 0.34 3.32 0 4 C-0.99 4 -1.98 4 -3 4 C-3.33 4.99 -3.66 5.98 -4 7 C-4.66 7.66 -5.32 8.32 -6 9 C-6.66 8.67 -7.32 8.34 -8 8 C-8.0825 8.61875 -8.165 9.2375 -8.25 9.875 C-8.4975 10.57625 -8.745 11.2775 -9 12 C-9.5878125 12.27199219 -10.175625 12.54398438 -10.78125 12.82421875 C-13.69779282 14.36978106 -15.20593927 16.35971231 -17.25 18.9375 C-17.95640625 19.81277344 -18.6628125 20.68804687 -19.390625 21.58984375 C-21.27766107 23.93280222 -21.27766107 23.93280222 -21 27 C-22.32 26.67 -23.64 26.34 -25 26 C-17.61132276 16.16426889 -10.06451821 7.18554255 0 0 Z " fill="#45A76A" transform="translate(47,21)"/>
<path d="M0 0 C0.33 0 0.66 0 1 0 C1.99479708 7.38656413 2.11836282 14.61555645 2.0625 22.0625 C2.05798828 23.21427734 2.05347656 24.36605469 2.04882812 25.55273438 C2.03714426 28.36854518 2.02076281 31.18424398 2 34 C1.34 34 0.68 34 0 34 C-0.168035 29.80103014 -0.32854866 25.60185961 -0.48217773 21.40234375 C-0.53546157 19.97453122 -0.59077975 18.54679306 -0.64819336 17.11914062 C-0.73048625 15.06396518 -0.80539678 13.00863107 -0.87890625 10.953125 C-0.9260376 9.71723633 -0.97316895 8.48134766 -1.02172852 7.20800781 C-1.00366468 4.54105481 -0.8150529 2.51376586 0 0 Z " fill="#3D9E63" transform="translate(220,91)"/>
<path d="M0 0 C-0.97582031 0.32613281 -1.95164062 0.65226563 -2.95703125 0.98828125 C-4.24234511 1.42922834 -5.52749278 1.87066008 -6.8125 2.3125 C-7.45509766 2.52583984 -8.09769531 2.73917969 -8.75976562 2.95898438 C-12.222165 4.16095722 -14.57266834 5.25009935 -17 8 C-17.66 8 -18.32 8 -19 8 C-19.33 8.66 -19.66 9.32 -20 10 C-20.66 8.68 -21.32 7.36 -22 6 C-19.56292162 5.0197729 -17.12536055 4.04077829 -14.6875 3.0625 C-13.99720703 2.78470703 -13.30691406 2.50691406 -12.59570312 2.22070312 C-3.97821465 -1.23461834 -3.97821465 -1.23461834 0 0 Z " fill="#47AA6C" transform="translate(87,4)"/>
<path d="M0 0 C0.33 0 0.66 0 1 0 C1.061875 1.093125 1.12375 2.18625 1.1875 3.3125 C1.60686129 7.10447509 1.60686129 7.10447509 4.375 8.8125 C5.24125 9.204375 6.1075 9.59625 7 10 C7.99 10.66 8.98 11.32 10 12 C8.02 12.66 6.04 13.32 4 14 C0.85713694 11.56681569 -0.29300255 9.73612972 -0.8125 5.875 C-1 2 -1 2 0 0 Z " fill="#3A9159" transform="translate(98,151)"/>
<path d="M0 0 C0.33 0 0.66 0 1 0 C1.46530864 7.78961124 0.15721701 14.52678392 -2 22 C-2.66 22 -3.32 22 -4 22 C-3.3622098 14.47407567 -1.80110167 7.32901118 0 0 Z " fill="#368C57" transform="translate(220,125)"/>
<path d="M0 0 C0.33 0.99 0.66 1.98 1 3 C0.01 3.33 -0.98 3.66 -2 4 C-2.268125 4.763125 -2.53625 5.52625 -2.8125 6.3125 C-4.40185514 9.90946163 -6.67153689 11.04633687 -10 13 C-10.66 12.67 -11.32 12.34 -12 12 C-8.04 8.04 -4.08 4.08 0 0 Z " fill="#33834C" transform="translate(157,129)"/>
<path d="M0 0 C6.16356805 1.6658292 11.48259656 4.87805286 17 8 C13.23375329 9.25541557 11.62811066 8.37061958 8 7 C8 6.34 8 5.68 8 5 C7.236875 4.896875 6.47375 4.79375 5.6875 4.6875 C2.82503132 3.95524057 1.80432431 3.27914649 0 1 C0 0.67 0 0.34 0 0 Z " fill="#41A669" transform="translate(154,8)"/>
<path d="M0 0 C5.23880078 0.55145271 9.97350697 1.42922093 15 3 C15.33 2.34 15.66 1.68 16 1 C16 1.66 16 2.32 16 3 C16.99 3 17.98 3 19 3 C19 3.66 19 4.32 19 5 C19.99 5.33 20.98 5.66 22 6 C14.2501365 5.47458553 7.3549914 3.44408524 0 1 C0 0.67 0 0.34 0 0 Z " fill="#3A8D5A" transform="translate(74,218)"/>
<path d="M0 0 C2.26998857 3.40498285 3.92252127 6.98149446 5.625 10.6875 C5.94984375 11.38939453 6.2746875 12.09128906 6.609375 12.81445312 C7.40848336 14.54193738 8.20454043 16.27083254 9 18 C8.01 18 7.02 18 6 18 C2.63438409 11.9394075 0.38669459 6.96050253 0 0 Z " fill="#30A159" transform="translate(9,145)"/>
<path d="M0 0 C-7.15602434 3.89733133 -15.00820899 4.25779971 -23 4 C-23 3.67 -23 3.34 -23 3 C-18.38 2.67 -13.76 2.34 -9 2 C-9 1.34 -9 0.68 -9 0 C-5.67465243 -1.10844919 -3.37817425 -0.84454356 0 0 Z " fill="#3F8F5C" transform="translate(142,221)"/>
<path d="M0 0 C0.99 0.99 1.98 1.98 3 3 C2.690625 3.99 2.38125 4.98 2.0625 6 C0.91566793 9.97731122 0.43287644 13.88767379 0 18 C-0.66 18 -1.32 18 -2 18 C-1.48758893 11.97099313 -0.930215 5.97995357 0 0 Z " fill="#378353" transform="translate(123,80)"/>
<path d="M0 0 C5.23115393 -0.21544006 9.43785303 0.47629807 14.4375 2 C15.67371094 2.37125 16.90992188 2.7425 18.18359375 3.125 C19.11300781 3.41375 20.04242188 3.7025 21 4 C17.06204091 5.22419163 14.83887763 4.48320272 11 3 C10.67 3.66 10.34 4.32 10 5 C9.67 4.01 9.34 3.02 9 2 C6.03 1.67 3.06 1.34 0 1 C0 0.67 0 0.34 0 0 Z " fill="#48A66A" transform="translate(127,1)"/>
<path d="M0 0 C2.46800047 1.15173355 4.04783565 2.04783565 6 4 C7.65893182 5.34294481 9.32476605 6.67744688 11 8 C10.67 9.32 10.34 10.64 10 12 C8.33032474 10.19019128 6.66417692 8.3773524 5 6.5625 C4.28457031 5.7880957 4.28457031 5.7880957 3.5546875 4.99804688 C0 1.11328125 0 1.11328125 0 0 Z " fill="#398859" transform="translate(27,184)"/>
<path d="M0 0 C1.32 0 2.64 0 4 0 C4 0.66 4 1.32 4 2 C4.9590625 2.3403125 4.9590625 2.3403125 5.9375 2.6875 C8 4 8 4 8.75 6.625 C8.87375 7.800625 8.87375 7.800625 9 9 C7.87105124 8.06725891 6.74699124 7.12859878 5.625 6.1875 C4.99851562 5.66542969 4.37203125 5.14335938 3.7265625 4.60546875 C2 3 2 3 0 0 Z " fill="#3A8D58" transform="translate(79,122)"/>
<path d="M0 0 C3.35250701 0.57575664 4.93818629 1.59306263 7.25 4.0625 C8.03117188 4.88427734 8.03117188 4.88427734 8.828125 5.72265625 C9.21484375 6.14417969 9.6015625 6.56570312 10 7 C9.67 7.99 9.34 8.98 9 10 C7.49702124 8.52386015 5.99768715 7.04400843 4.5 5.5625 C3.6646875 4.73878906 2.829375 3.91507812 1.96875 3.06640625 C0 1 0 1 0 0 Z " fill="#3B9E65" transform="translate(150,81)"/>
<path d="M0 0 C1.98 1.65 3.96 3.3 6 5 C5.67 5.99 5.34 6.98 5 8 C3.68 7.67 2.36 7.34 1 7 C0.67 4.69 0.34 2.38 0 0 Z " fill="#368F5A" transform="translate(153,103)"/>
<path d="M0 0 C2.31 0 4.62 0 7 0 C6.29875 0.556875 5.5975 1.11375 4.875 1.6875 C1.88655739 4.09124732 -1.05940238 6.53810432 -4 9 C-3.42618522 5.67187429 -2.40619252 4.30157545 0 2 C0 1.34 0 0.68 0 0 Z " fill="#49A265" transform="translate(77,74)"/>
<path d="M0 0 C0.99 0 1.98 0 3 0 C2.67 2.31 2.34 4.62 2 7 C2.99 7.33 3.98 7.66 5 8 C4.67 8.66 4.34 9.32 4 10 C3.34 10 2.68 10 2 10 C-1.07692308 4.58461538 -1.07692308 4.58461538 -0.6875 1.625 C-0.460625 1.08875 -0.23375 0.5525 0 0 Z " fill="#2F8150" transform="translate(132,133)"/>
<path d="M0 0 C0.66 0.33 1.32 0.66 2 1 C-0.57784846 3.64752004 -2.91648098 5.94432065 -6 8 C-6.99 7.34 -7.98 6.68 -9 6 C-6.03 4.02 -3.06 2.04 0 0 Z M-8 8 C-6 9 -6 9 -6 9 Z " fill="#44AA6C" transform="translate(57,14)"/>
<path d="M0 0 C0.268125 0.639375 0.53625 1.27875 0.8125 1.9375 C1.88667752 4.33131686 1.88667752 4.33131686 5 5 C4.01 5.495 4.01 5.495 3 6 C0.8359375 5.22265625 0.8359375 5.22265625 -1.625 4.0625 C-2.44226563 3.68222656 -3.25953125 3.30195313 -4.1015625 2.91015625 C-4.72804688 2.60980469 -5.35453125 2.30945313 -6 2 C-5.38125 1.855625 -4.7625 1.71125 -4.125 1.5625 C-1.96741678 1.06847775 -1.96741678 1.06847775 0 0 Z " fill="#368F57" transform="translate(69,212)"/>
<path d="M0 0 C1.14926266 0.95421808 2.29430541 1.91352045 3.4375 2.875 C4.07558594 3.40867188 4.71367188 3.94234375 5.37109375 4.4921875 C7 6 7 6 8 8 C7.01 8.33 6.02 8.66 5 9 C1.9083091 6.47043472 1.09068668 3.77545388 0 0 Z " fill="#45A768" transform="translate(72,134)"/>
<path d="M0 0 C2 2 2 2 2 5 C2.66 5 3.32 5 4 5 C3.67 5.99 3.34 6.98 3 8 C0.69 6.02 -1.62 4.04 -4 2 C-2.68 1.34 -1.36 0.68 0 0 Z " fill="#41A166" transform="translate(146,73)"/>
<path d="M0 0 C2.64465038 3.1254959 3.84414715 6.08788267 5 10 C3.68 9.67 2.36 9.34 1 9 C0.67 6.03 0.34 3.06 0 0 Z " fill="#45A66A" transform="translate(208,56)"/>
<path d="M0 0 C0.66 0 1.32 0 2 0 C2.66 1.65 3.32 3.3 4 5 C4.99 5 5.98 5 7 5 C7.33 6.32 7.66 7.64 8 9 C7.01 9.495 7.01 9.495 6 10 C4.99723227 8.52270825 3.99785546 7.04311423 3 5.5625 C2.443125 4.73878906 1.88625 3.91507813 1.3125 3.06640625 C0 1 0 1 0 0 Z " fill="#378656" transform="translate(20,174)"/>
<path d="M0 0 C0.99 0.33 1.98 0.66 3 1 C2.2884375 1.8353125 2.2884375 1.8353125 1.5625 2.6875 C-0.12395996 5.18346074 -0.58953107 7.0446237 -1 10 C-1.66 9.67 -2.32 9.34 -3 9 C-2.44271087 5.65626525 -1.64826111 2.96687001 0 0 Z " fill="#41A266" transform="translate(51,101)"/>
<path d="M0 0 C0.66 0.66 1.32 1.32 2 2 C0.02 3.32 -1.96 4.64 -4 6 C-3.67 4.35 -3.34 2.7 -3 1 C-2.01 0.67 -1.02 0.34 0 0 Z " fill="#2F905A" transform="translate(186,194)"/>
<path d="M0 0 C0.99 0.33 1.98 0.66 3 1 C1.37660195 2.70884005 -0.29319053 4.37446717 -2 6 C-2.66 6 -3.32 6 -4 6 C-2.25 1.125 -2.25 1.125 0 0 Z " fill="#44A26A" transform="translate(62,91)"/>
<path d="M0 0 C0.66 0.66 1.32 1.32 2 2 C0.35 3.98 -1.3 5.96 -3 8 C-3.33 7.34 -3.66 6.68 -4 6 C-3.0625 3.875 -3.0625 3.875 -2 2 C-1.34 2 -0.68 2 0 2 C0 1.34 0 0.68 0 0 Z " fill="#2D8B54" transform="translate(199,179)"/>
<path d="M0 0 C1 2 1 2 0.375 4.0625 C-1 6 -1 6 -3.625 6.75 C-4.800625 6.87375 -4.800625 6.87375 -6 7 C-4.02 4.69 -2.04 2.38 0 0 Z " fill="#338048" transform="translate(173,113)"/>
</svg>
